<svg width="96" height="40" viewBox="0 0 96 40" fill="none" xmlns="http://www.w3.org/2000/svg">
  <path
    d="M78.5205 29.1297C78.7561 29.1297 78.9675 29.0736 79.1548 28.9615C79.3421 28.8493 79.4901 28.6904 79.5988 28.4848C79.7076 28.2729 79.7619 28.0236 79.7619 27.737C79.7619 27.4441 79.7076 27.1949 79.5988 26.9892C79.4901 26.7836 79.3421 26.6247 79.1548 26.5125C78.9675 26.4004 78.7561 26.3443 78.5205 26.3443C78.2849 26.3443 78.0734 26.4004 77.8861 26.5125C77.6989 26.6247 77.5478 26.7836 77.4331 26.9892C77.3243 27.1949 77.2699 27.4441 77.2699 27.737C77.2699 28.0236 77.3243 28.2729 77.4331 28.4848C77.5478 28.6904 77.6989 28.8493 77.8861 28.9615C78.0734 29.0736 78.2849 29.1297 78.5205 29.1297Z"
    fill="white" />
  <path fill-rule="evenodd" clip-rule="evenodd"
    d="M88.0355 18.6406C92.4342 18.6406 96 22.3186 96 26.8557C96 31.3928 92.4342 35.0709 88.0355 35.0709H83.0445L85.0975 40L78.2304 35.0709H65.3456C60.947 35.0709 57.3812 31.3928 57.3812 26.8557C57.3812 22.3186 60.947 18.6406 65.3456 18.6406H88.0355ZM73.8961 25.3909C73.5941 25.2289 73.2497 25.1479 72.8631 25.1479C72.4462 25.1479 72.0747 25.2382 71.7485 25.4189C71.5844 25.5098 71.4394 25.6204 71.3135 25.7508V23.3158H69.8999V30.2514H71.3135V27.765C71.3135 27.4535 71.3618 27.198 71.4585 26.9986C71.5612 26.7992 71.7001 26.6527 71.8753 26.5593C72.0566 26.4596 72.2589 26.4097 72.4825 26.4097C72.7966 26.4097 73.0383 26.5063 73.2074 26.6995C73.3826 26.8926 73.4702 27.1918 73.4702 27.5968V30.2514H74.8839V27.3725C74.8839 26.8615 74.7963 26.444 74.6211 26.12C74.4459 25.7897 74.2042 25.5467 73.8961 25.3909ZM64.8461 30.1579C65.3113 30.295 65.7976 30.3635 66.3051 30.3635C66.9092 30.3635 67.4076 30.27 67.8003 30.0831C68.199 29.8962 68.498 29.65 68.6974 29.3447C68.8968 29.0394 68.9964 28.7029 68.9964 28.3352C68.9964 27.9925 68.927 27.709 68.788 27.4846C68.6551 27.2603 68.4799 27.0796 68.2624 26.9425C68.045 26.8054 67.8033 26.6964 67.5375 26.6154C67.2777 26.5343 67.0149 26.4627 66.7491 26.4004C66.4893 26.3381 66.2507 26.2757 66.0332 26.2134C65.8158 26.1511 65.6406 26.0701 65.5077 25.9704C65.3747 25.8645 65.3083 25.7274 65.3083 25.5591C65.3083 25.4158 65.3476 25.2912 65.4261 25.1853C65.5046 25.0731 65.6345 24.9827 65.8158 24.9142C65.997 24.8456 66.2296 24.8114 66.5135 24.8114C66.7975 24.8114 67.0874 24.855 67.3834 24.9422C67.6795 25.0232 67.9755 25.151 68.2715 25.3255L68.7246 24.1758C68.4286 23.9826 68.0872 23.8393 67.7006 23.7458C67.314 23.6461 66.9213 23.5963 66.5226 23.5963C65.9245 23.5963 65.4261 23.6897 65.0274 23.8767C64.6347 24.0574 64.3387 24.3035 64.1393 24.6151C63.946 24.9204 63.8493 25.26 63.8493 25.6339C63.8493 25.9829 63.9158 26.2695 64.0487 26.4938C64.1877 26.7182 64.3659 26.8989 64.5834 27.036C64.8008 27.1731 65.0395 27.2852 65.2992 27.3725C65.565 27.4597 65.8278 27.5345 66.0876 27.5968C66.3534 27.6529 66.5951 27.7152 66.8126 27.7837C67.03 27.846 67.2052 27.9302 67.3381 28.0361C67.471 28.1358 67.5375 28.2729 67.5375 28.4474C67.5375 28.5845 67.4952 28.706 67.4106 28.8119C67.3261 28.9178 67.1932 29.002 67.0119 29.0643C66.8367 29.1204 66.6041 29.1484 66.3142 29.1484C65.9336 29.1484 65.556 29.0861 65.1814 28.9615C64.8129 28.8306 64.4927 28.6655 64.2209 28.4661L63.7225 29.6064C64.0064 29.8307 64.381 30.0146 64.8461 30.1579ZM78.5205 30.3261C78.0009 30.3261 77.5388 30.214 77.134 29.9896C76.7353 29.7653 76.4181 29.46 76.1825 29.0736C75.953 28.681 75.8382 28.2355 75.8382 27.737C75.8382 27.2323 75.953 26.7867 76.1825 26.4004C76.4181 26.0078 76.7353 25.7025 77.134 25.4844C77.5388 25.26 78.0009 25.1479 78.5205 25.1479C79.034 25.1479 79.4931 25.26 79.8979 25.4844C80.3026 25.7025 80.6198 26.0047 80.8493 26.391C81.0789 26.7774 81.1937 27.226 81.1937 27.737C81.1937 28.2355 81.0789 28.681 80.8493 29.0736C80.6198 29.46 80.3026 29.7653 79.8979 29.9896C79.4931 30.214 79.034 30.3261 78.5205 30.3261ZM82.6946 25.2226H81.3625L83.1205 30.2514H84.4797L85.6089 27.1272L86.6999 30.2514H88.0682L89.8353 25.2226H88.5847L87.4005 28.6295L86.2377 25.2226H85.0416L83.8431 28.6295L82.6946 25.2226Z"
    fill="white" />
  <path fill-rule="evenodd" clip-rule="evenodd"
    d="M62.1995 5.38754C62.0501 5.62157 61.7966 5.76244 61.5249 5.76244H59.6702C55.7178 5.76244 52.5137 9.0674 52.5137 13.1443C52.5137 17.2212 55.7178 20.5261 59.6702 20.5261L75.5992 20.5261C79.5516 20.5261 82.7557 17.2212 82.7557 13.1443C82.7557 9.0674 79.5516 5.76244 75.5992 5.76244L66.339 5.76244C66.174 5.76244 66.0129 5.71033 65.8775 5.61312L61.3293 2.34854L62.2672 4.60015C62.3744 4.85765 62.349 5.1535 62.1995 5.38754ZM59.4718 0L66.339 4.92911L75.5992 4.92911C79.9978 4.92911 83.5636 8.60716 83.5636 13.1443C83.5636 17.6814 79.9978 21.3594 75.5992 21.3594L59.6702 21.3594C55.2716 21.3594 51.7058 17.6814 51.7058 13.1443C51.7058 8.60716 55.2716 4.9291 59.6702 4.9291H61.5249L59.4718 0ZM68.5855 9.56787C68.5855 9.10763 68.9472 8.73454 69.3934 8.73454H70.8071C71.0772 8.73454 71.3164 8.87129 71.4631 9.08134C71.6097 8.87129 71.8489 8.73454 72.119 8.73454H73.5327C73.9789 8.73454 74.3406 9.10763 74.3406 9.56787V11.5568L75.0429 10.87C75.193 10.7232 75.3919 10.6413 75.5988 10.6413H77.2843C77.6098 10.6413 77.9036 10.8429 78.0294 11.1526C78.1552 11.4623 78.0885 11.8197 77.8602 12.0591L76.3286 13.6651L78.1005 15.9881C78.2918 16.2389 78.3274 16.5804 78.1922 16.8674C78.0571 17.1545 77.7749 17.3367 77.4655 17.3367H75.7528C75.5083 17.3367 75.277 17.2225 75.1236 17.0261L74.3406 16.0231V16.5034C74.3406 16.9636 73.9789 17.3367 73.5327 17.3367H72.119C71.8489 17.3367 71.6097 17.2 71.4631 16.9899C71.3164 17.2 71.0772 17.3367 70.8071 17.3367H69.3934C69.1331 17.3367 68.9015 17.2097 68.7537 17.0124C68.606 17.2097 68.3744 17.3367 68.114 17.3367H66.791C66.6458 17.3367 66.5096 17.2972 66.3918 17.2281C66.0526 17.3583 65.6835 17.4115 65.3049 17.4115C64.8369 17.4115 64.3881 17.3313 63.9845 17.137L63.9713 17.1305C63.5861 16.9363 63.2582 16.6577 63.0231 16.2839C62.7895 15.9123 62.6755 15.4949 62.6755 15.0546C62.6755 14.6167 62.7791 14.1952 63.011 13.8208L63.0196 13.8072C63.1339 13.6303 63.2715 13.4795 63.4259 13.3516L62.9461 12.3883C62.8887 12.2731 62.8597 12.1499 62.8569 12.0276H62.1363V16.5034C62.1363 16.9636 61.7746 17.3367 61.3284 17.3367H59.8603C59.4142 17.3367 59.0524 16.9636 59.0524 16.5034V12.0276H57.8305C57.3843 12.0276 57.0226 11.6545 57.0226 11.1943V9.96045C57.0226 9.50021 57.3843 9.12711 57.8305 9.12711H63.3582C63.8044 9.12711 64.1661 9.50021 64.1661 9.96045V10.832C64.2465 10.8042 64.3284 10.7786 64.4116 10.7551C64.8554 10.6296 65.3079 10.5666 65.767 10.5666C66.6301 10.5666 67.4182 10.7767 68.0221 11.308C68.262 11.519 68.4472 11.7661 68.5855 12.0397V9.56787ZM59.8603 11.1943V16.5034H61.3284V11.1943H63.3582V9.96045H57.8305V11.1943H59.8603ZM66.2824 12.7164C66.3331 12.7467 66.3788 12.7815 66.4195 12.8206C66.6067 12.9951 66.7004 13.2381 66.7004 13.5497H65.5767C65.2595 13.5497 64.9808 13.5765 64.7404 13.6302C64.7106 13.6368 64.6814 13.6439 64.6528 13.6514C64.5516 13.6778 64.4579 13.7093 64.3715 13.746C64.2876 13.7799 64.2098 13.8176 64.138 13.8589C63.9461 13.9693 63.7974 14.1062 63.6919 14.2694C63.5529 14.4938 63.4834 14.7555 63.4834 15.0546C63.4834 15.3412 63.5559 15.5998 63.7009 15.8304C63.8459 16.0609 64.0543 16.2448 64.3262 16.3819C64.598 16.5127 64.9243 16.5782 65.3049 16.5782C65.5584 16.5782 65.7845 16.5488 65.9831 16.49C66.1205 16.4493 66.2449 16.3946 66.356 16.3258C66.3738 16.3148 66.3912 16.3035 66.4082 16.2918C66.5011 16.2283 66.5832 16.1549 66.6546 16.0716C66.6586 16.067 66.6625 16.0623 66.6664 16.0576C66.7126 16.0022 66.7541 15.9425 66.791 15.8785V16.5034H68.114V13.6338C68.114 12.8674 67.9086 12.3034 67.4978 11.942C67.087 11.5806 66.5101 11.3999 65.767 11.3999C65.3804 11.3999 64.9998 11.4529 64.6252 11.5588C64.5433 11.582 64.464 11.6072 64.3872 11.6346C64.3665 11.642 64.346 11.6495 64.3256 11.6572C64.077 11.7512 63.8566 11.8679 63.6647 12.0074L64.1721 13.0263C64.2528 12.9603 64.3412 12.9008 64.4373 12.848C64.5498 12.7862 64.6729 12.7335 64.8065 12.6898L64.8083 12.6891C65.0614 12.6023 65.3176 12.5589 65.5767 12.5589C65.8719 12.5589 66.1072 12.6114 66.2824 12.7164ZM66.0247 15.5459C66.0728 15.5317 66.1196 15.5146 66.1651 15.4945C66.2088 15.4752 66.2513 15.4532 66.2926 15.4285C66.3779 15.3745 66.4526 15.3096 66.5166 15.2336C66.5607 15.1813 66.5997 15.1238 66.6337 15.0611C66.6587 15.015 66.6809 14.9661 66.7004 14.9144V14.4003H65.7308C65.3985 14.4003 65.1689 14.4564 65.0421 14.5685C64.9212 14.6807 64.8608 14.8209 64.8608 14.9892C64.8608 15.1761 64.9303 15.3256 65.0693 15.4378C65.2142 15.5437 65.4106 15.5967 65.6583 15.5967C65.7877 15.5967 65.9099 15.5798 66.0247 15.5459ZM75.7528 16.5034H77.4655L75.2539 13.6037L77.2843 11.4747H75.5988L73.5327 13.4954V9.56787H72.119V16.5034H73.5327V15.2271L74.2156 14.5345L75.7528 16.5034ZM70.8071 16.5034H69.3934V9.56787H70.8071V16.5034Z"
    fill="white" />
  <path fill-rule="evenodd" clip-rule="evenodd"
    d="M55.7453 11.8402H31.2172V28.6515H55.7453V11.8402ZM38.9633 16.469V23.7855C38.9633 23.7933 38.9635 23.8011 38.9637 23.8089C38.9641 23.8243 38.9644 23.8396 38.9633 23.8546C38.9599 23.8969 38.971 23.9219 39.0192 23.915C39.0306 23.9138 39.0421 23.9142 39.0536 23.9146C39.0593 23.9148 39.065 23.915 39.0707 23.915C39.2738 23.915 39.4769 23.9151 39.6801 23.9152H39.6816C40.0878 23.9154 40.4943 23.9156 40.9008 23.915C40.9135 23.915 40.9249 23.9151 40.9348 23.9152C40.9741 23.9157 40.9932 23.916 41.0022 23.9064C41.0107 23.8974 41.0103 23.8798 41.0096 23.8454C41.0094 23.8338 41.0091 23.8202 41.0091 23.8045V16.4794C41.0091 16.4736 41.0089 16.4679 41.0087 16.4621C41.0083 16.4506 41.0079 16.4391 41.0091 16.4276C41.0134 16.3844 40.9988 16.362 40.9523 16.3672C40.9432 16.3683 40.9337 16.368 40.924 16.3676C40.9192 16.3674 40.9143 16.3672 40.9094 16.3672C40.7042 16.3672 40.499 16.3671 40.2938 16.367C39.8832 16.3668 39.4725 16.3666 39.0622 16.3672C39.05 16.3672 39.0393 16.367 39.0299 16.3669C38.996 16.3664 38.979 16.3661 38.9706 16.3746C38.9622 16.3832 38.9625 16.4005 38.963 16.4353C38.9631 16.4451 38.9633 16.4563 38.9633 16.469ZM49.1526 16.3674H46.1012C45.0843 16.3674 44.0674 16.3674 43.0514 16.3666C43.0437 16.3666 43.036 16.3667 43.0284 16.3668C43.0132 16.367 42.9981 16.3671 42.9827 16.3666C42.9483 16.3648 42.9362 16.3812 42.9388 16.4132C42.9394 16.4229 42.9392 16.4323 42.939 16.4417C42.9389 16.4465 42.9388 16.4514 42.9388 16.4563V18.2082L42.9388 18.2264C42.9386 18.2638 42.9385 18.2824 42.9475 18.2914C42.9564 18.3003 42.974 18.3001 43.0088 18.2998C43.0159 18.2998 43.0238 18.2997 43.0325 18.2997H44.9493C45.0121 18.2997 45.043 18.2997 45.0583 18.3154C45.0731 18.3307 45.0731 18.3609 45.0731 18.4205V23.822C45.0731 23.8324 45.073 23.8416 45.0729 23.8498C45.0724 23.8806 45.0722 23.8969 45.08 23.9053C45.0887 23.9147 45.1072 23.9146 45.1461 23.9144L45.1651 23.9144H47.0046C47.0624 23.9144 47.091 23.9144 47.1051 23.8998C47.1189 23.8856 47.1189 23.8576 47.1189 23.8022V18.4007C47.1189 18.3941 47.1188 18.388 47.1188 18.3822C47.1187 18.3777 47.1187 18.3735 47.1186 18.3694C47.1181 18.3362 47.1178 18.3188 47.1262 18.3098C47.1354 18.3 47.1549 18.3001 47.1956 18.3004C47.2033 18.3005 47.2119 18.3006 47.2212 18.3006H49.1724C49.2566 18.3006 49.2566 18.3006 49.2575 18.2168V16.4736C49.2575 16.4616 49.2576 16.451 49.2577 16.4415C49.2582 16.4037 49.2584 16.3848 49.2493 16.3756C49.2402 16.3664 49.2219 16.3666 49.1854 16.3672C49.1758 16.3673 49.1649 16.3674 49.1526 16.3674Z"
    fill="white" />
  <path
    d="M16.0238 19.3056C16.3717 18.6609 16.9276 18.3519 17.4671 18.3399C18.5616 18.3373 19.2772 18.956 19.4723 19.8139C19.5905 20.3308 19.5379 20.8331 19.285 21.3025C18.9872 21.854 18.5228 22.175 17.8978 22.2467C17.2936 22.3166 16.7662 22.1448 16.3354 21.7081C16.0592 21.4285 15.8926 21.0877 15.8218 20.7028C15.7321 20.2152 15.7873 19.7431 16.0238 19.3056Z"
    fill="white" />
  <path fill-rule="evenodd" clip-rule="evenodd"
    d="M24.5278 11.8402H0V28.6515H24.5278L31.2172 20.2458L24.5278 11.8402ZM10.8453 19.0174C10.8825 19.0477 10.9199 19.0782 10.9579 19.1088C10.9831 19.0934 10.9986 19.0724 11.0133 19.0525C11.0167 19.0479 11.0201 19.0433 11.0235 19.0389C11.1564 18.8801 11.2885 18.7205 11.4206 18.5608C11.6855 18.2424 11.9497 17.9239 12.2138 17.6046C12.2665 17.5408 12.2648 17.5114 12.2043 17.4596C12.1569 17.4182 12.1085 17.3777 12.0593 17.3371C11.6398 16.9919 11.1789 16.7226 10.6566 16.5664C10.3079 16.4629 9.9514 16.4059 9.58886 16.3809C9.11583 16.349 8.64711 16.3645 8.18272 16.4724C6.55646 16.8486 5.34281 18.2018 5.20039 19.9365C5.16241 20.4042 5.19866 20.8676 5.31778 21.3224C5.58882 22.352 6.17752 23.1408 7.11236 23.6603C7.62164 23.9434 8.17322 24.0927 8.75329 24.1393C9.24444 24.179 9.73042 24.1488 10.2104 24.04C11.0218 23.8562 11.7391 23.4851 12.377 22.9544C12.4279 22.9121 12.4486 22.8698 12.4486 22.8025C12.4465 21.9771 12.4467 21.1511 12.4468 20.3255L12.4469 19.7052C12.4469 19.6944 12.4461 19.6835 12.4454 19.6727C12.4437 19.6485 12.4421 19.6245 12.4486 19.6025C12.4562 19.5769 12.4425 19.5623 12.4291 19.548C12.4181 19.5362 12.4073 19.5247 12.4089 19.5075C12.4124 19.4791 12.3934 19.4747 12.3709 19.4747H8.94491C8.94103 19.4747 8.93711 19.4748 8.93316 19.4749L8.92493 19.4751C8.91142 19.4755 8.89776 19.4759 8.88449 19.4747C8.84996 19.4713 8.83874 19.4886 8.84133 19.5205C8.84249 19.5337 8.8421 19.5474 8.84171 19.5609C8.84152 19.5676 8.84133 19.5743 8.84133 19.5809C8.84133 19.7621 8.84124 19.9434 8.84114 20.1246C8.84095 20.487 8.84076 20.8495 8.84133 21.212C8.84133 21.227 8.84106 21.2399 8.84082 21.251C8.84012 21.284 8.83976 21.301 8.84795 21.3097C8.8567 21.319 8.8752 21.3188 8.91344 21.3184C8.92295 21.3182 8.93367 21.3181 8.94578 21.3181H10.301C10.3129 21.3181 10.3235 21.318 10.3329 21.3179C10.3706 21.3174 10.3889 21.3172 10.3975 21.3264C10.4056 21.3349 10.4054 21.3518 10.4049 21.3843C10.4047 21.3958 10.4045 21.4093 10.4046 21.4251C10.4051 21.5039 10.405 21.5823 10.4048 21.6609L10.4048 21.662C10.4047 21.7009 10.4046 21.7399 10.4046 21.779V21.7818C10.4046 21.9438 10.4046 21.9451 10.2587 22.0154C9.83141 22.2208 9.37996 22.2795 8.91384 22.2208C8.39592 22.1561 7.98159 21.9101 7.67775 21.4847C7.48008 21.2076 7.37218 20.8952 7.33161 20.5587C7.28068 20.1289 7.33247 19.7155 7.52669 19.3254C7.76062 18.8568 8.11452 18.5203 8.62294 18.3658C8.97944 18.2571 9.34026 18.2855 9.69762 18.3641C10.0213 18.4348 10.3036 18.5936 10.5634 18.793C10.6586 18.8653 10.7512 18.9408 10.8453 19.0174ZM20.433 17.4518C19.6346 16.7217 18.6833 16.3739 17.7001 16.3662C17.2461 16.367 16.9069 16.4042 16.5469 16.4982C15.5025 16.7718 14.685 17.3586 14.1421 18.2958C13.5844 19.2572 13.4714 20.2885 13.783 21.3491C14.1317 22.5349 14.8749 23.3979 16.0247 23.8786C16.9077 24.2471 17.8227 24.2963 18.7455 24.0529C19.8175 23.7707 20.6393 23.1468 21.1779 22.1733C21.632 21.3526 21.7537 20.4723 21.5845 19.5532C21.4326 18.7273 21.0528 18.0197 20.433 17.4518Z"
    fill="white" />
</svg>