<svg width="476" height="130" viewBox="0 0 476 130" fill="none" xmlns="http://www.w3.org/2000/svg">
<path d="M133.914 0.365364C135.226 2.19217 137.372 11.6916 128.906 33.3697C128.071 35.0747 115.789 61.7461 108.395 78.0655L115.312 84.5202L114.239 85.6163C108.515 83.9113 77.9875 84.1549 77.9875 84.1549V83.1806C77.9875 83.1806 83.8306 84.0331 84.9038 78.1873C84.9038 78.1873 75.364 53.0992 71.6674 43.478L58.6695 78.3091L65.2281 84.5202L64.1548 85.6163C58.5502 83.9113 27.4268 84.1549 27.4268 84.1549V83.1806C27.4268 83.1806 33.3891 84.0331 34.4623 78.1873C29.8117 64.7907 15.7406 24.7228 10.9707 11.3262C9.4205 11.3262 1.90795 10.839 0.238494 10.839C0.238494 10.7173 0 9.98654 0 9.98654C8.82427 6.69829 14.6674 1.70502 15.8598 0.365364C16.0983 0.121786 17.6485 0 19.6757 0C24.3264 0 31.4812 0.487149 31.4812 0.487149C36.0126 13.5184 57.8347 76.1169 57.8347 76.1169L70.8326 41.2858L59.2657 11.3262C57.477 11.2044 48.772 10.839 48.772 10.839C48.772 10.7173 48.5335 9.98654 48.5335 9.98654C57.3577 6.69829 63.2009 1.70502 64.3933 0.365364C64.6318 0.121786 66.3013 0 68.567 0C73.5753 0 81.3264 0.487149 81.3264 0.487149C85.8578 13.5184 107.561 75.8734 107.561 75.8734C108.515 73.9248 126.402 33.8568 126.521 33.3697C128.667 26.306 111.854 6.57651 112.569 5.35864C114.477 1.8268 132.841 0.243578 132.841 0.243578C133.08 0.243578 133.914 0.365364 133.914 0.365364Z" fill="#D37B7B"/>
<path d="M169.264 25.9407C191.087 25.9407 209.928 37.8758 209.928 55.7785C209.928 73.5594 191.087 85.6163 169.264 85.6163C147.323 85.6163 128.601 73.5594 128.601 55.7785C128.601 37.8758 147.323 25.9407 169.264 25.9407ZM186.794 57.6053C188.105 40.5551 181.905 28.3764 171.411 27.1585C160.798 26.0624 152.928 36.7797 151.616 53.8299C150.423 71.0019 156.624 83.1806 167.118 84.2767C177.731 85.3728 185.601 74.6555 186.794 57.6053Z" fill="#D37B7B"/>
<path d="M239.818 27.0367V38.3629C241.726 31.6646 246.138 26.0624 257.585 26.0624C268.556 26.0624 277.857 30.8121 280.362 40.6769C281.912 32.8825 286.085 26.0624 298.606 26.0624C311.366 26.0624 322.098 32.5172 322.098 46.0355V76.7259L324.364 85.1292L323.171 85.7381C323.171 85.7381 307.788 84.2767 289.782 84.2767V83.1806C289.782 83.1806 298.487 84.1549 298.964 77.4566V46.0355C298.964 46.0355 299.322 30.9339 290.378 30.9339C282.746 30.9339 281.554 40.9205 280.958 50.4199V76.7259L283.343 85.1292L282.031 85.7381C282.031 85.7381 266.529 84.2767 248.403 84.2767V83.1806C248.403 83.1806 257.228 84.1549 257.943 77.4566V46.0355C257.943 46.0355 258.301 30.9339 249.238 30.9339C241.249 30.9339 240.414 41.773 239.818 51.7595V76.7259L242.203 85.1292L240.891 85.7381C240.891 85.7381 227.774 84.2767 209.767 84.2767V83.1806C209.767 83.1806 216.207 84.1549 216.803 77.4566V35.5618L206.905 32.6389V31.7864C216.326 30.5686 233.974 27.1585 235.644 26.5496C236.598 26.1842 237.313 26.0624 237.79 26.0624C239.341 26.0624 239.818 27.0367 239.818 27.0367Z" fill="#D37B7B"/>
<path d="M370.323 40.7987C387.018 42.9908 399.777 52.0031 399.658 64.3036C399.539 77.213 386.779 85.6163 369.369 85.6163C342.062 85.6163 324.89 74.1683 324.89 55.7785C324.89 37.1451 341.108 25.9407 367.819 25.9407C375.212 25.9407 395.603 31.5429 395.723 38.8501C393.934 40.4333 390.595 42.3819 387.972 42.3819C386.421 42.3819 385.467 41.773 384.513 40.7987H370.323ZM368.057 26.9149C359.591 26.9149 354.344 32.6389 351.363 39.5808H383.679C380.936 35.0747 379.505 26.9149 368.057 26.9149ZM350.886 40.7987C348.501 46.888 347.785 53.7081 347.785 58.2142C347.785 72.098 356.252 84.3985 370.681 84.3985C386.064 84.3985 398.346 75.8734 398.346 64.3036C398.346 51.8813 382.844 40.7987 362.095 40.7987H350.886Z" fill="#D37B7B"/>
<path d="M473.615 76.7259L476 85.1292L474.688 85.7381C474.688 85.7381 458.232 84.2767 440.226 84.2767V83.1806C440.226 83.1806 450.243 84.5202 450.481 77.4566V46.0355C450.481 46.0355 450.958 30.9339 441.895 30.9339C433.906 30.9339 429.851 41.6512 428.778 51.6377V76.7259L431.163 85.1292L429.851 85.7381C429.851 85.7381 416.734 84.2767 398.609 84.2767V83.1806C398.609 83.1806 405.048 84.1549 405.764 77.4566V35.5618L395.866 32.6389V31.7864C405.287 30.5686 423.651 27.2803 425.082 26.1842C425.916 25.6971 426.87 26.0624 427.347 26.306L427.467 26.1842C428.182 26.5496 428.778 27.0367 428.778 27.0367V44.0869C430.805 35.44 436.172 26.0624 450.6 26.0624C463.002 26.0624 473.615 32.5172 473.615 46.0355V76.7259Z" fill="#D37B7B"/>
<mask id="path-2-outside-1_5517_1449" maskUnits="userSpaceOnUse" x="221.988" y="80.3906" width="213" height="50" fill="black">
<rect fill="white" x="221.988" y="80.3906" width="213" height="50"/>
<path d="M260.299 95.4219C259.663 95.6655 259.027 95.4828 258.391 94.8739C257.755 94.2243 257.437 93.6154 257.437 93.047C257.437 92.5193 257.457 92.1742 257.497 92.0118C257.537 91.8089 257.696 91.5856 257.974 91.342C258.292 91.0578 258.65 90.9158 259.047 90.9158C259.524 90.9158 259.941 91.0375 260.299 91.2811C261.015 91.7277 261.372 92.4787 261.372 93.5342C261.372 94.4679 261.015 95.0971 260.299 95.4219ZM257.378 120.815C254.555 122.641 252.131 123.981 250.103 124.834C248.076 125.686 246.387 126.112 245.035 126.112C241.935 126.112 239.808 125.463 238.656 124.164C237.662 123.068 237.165 121.2 237.165 118.562C237.165 117.912 237.245 117.181 237.404 116.369C237.563 115.517 237.722 114.705 237.881 113.934C236.092 115.233 234.681 116.227 233.647 116.917C230.587 119.069 228.301 120.591 226.791 121.484C226.115 121.89 225.479 122.093 224.883 122.093C224.565 122.093 224.346 121.992 224.227 121.789C224.068 121.586 223.988 121.363 223.988 121.119C223.988 120.591 224.326 120.064 225.002 119.536C228.261 117.059 232.673 114.035 238.238 110.463C239.113 109.935 240.544 108.676 242.531 106.687C244.24 105.023 245.512 104.13 246.347 104.008C246.943 103.967 247.321 104.049 247.48 104.252C247.679 104.414 247.778 104.739 247.778 105.226V106.2C245.95 108.473 244.34 110.483 242.949 112.229C241.398 114.218 240.623 116.126 240.623 117.953C240.623 119.779 241.001 121.139 241.756 122.032C242.551 122.885 243.843 123.311 245.632 123.311C246.745 123.311 248.712 122.54 251.534 120.997C252.011 120.713 253.204 120.003 255.112 118.866C256.145 118.176 257.06 117.831 257.855 117.831C258.212 117.831 258.471 117.953 258.63 118.196C258.789 118.399 258.868 118.602 258.868 118.805C258.868 119.13 258.709 119.495 258.391 119.901C258.113 120.267 257.775 120.571 257.378 120.815Z"/>
<path d="M322.606 120.997C319.903 122.621 317.915 123.677 316.644 124.164C314.457 124.976 311.834 125.382 308.773 125.382C306.428 125.382 304.6 124.996 303.288 124.225C301.976 123.453 301.32 122.56 301.32 121.545C301.32 120.409 301.559 118.886 302.036 116.978C302.513 115.07 302.751 113.873 302.751 113.386C302.751 112.858 302.612 112.432 302.334 112.107C302.056 111.782 301.618 111.62 301.022 111.62C298.796 111.62 296.431 112.026 293.927 112.838C292.854 113.162 289.356 114.705 283.433 117.465C283.036 117.831 281.883 119.191 279.975 121.545C278.544 123.291 277.451 124.164 276.696 124.164C276.139 124.164 275.622 123.9 275.145 123.372C274.668 122.844 274.43 122.296 274.43 121.728C274.43 121.484 275.086 120.571 276.398 118.988C277.232 117.973 277.809 117.222 278.127 116.735C278.246 115.923 277.928 115.131 277.173 114.36C276.417 113.589 275.463 113.203 274.311 113.203C272.681 113.203 270.236 114.096 266.977 115.882C266.858 115.963 264.99 116.958 261.372 118.866C259.345 119.962 257.835 120.835 256.841 121.484C256.086 121.972 255.39 122.215 254.754 122.215C254.317 122.215 253.999 122.093 253.8 121.85C253.641 121.606 253.641 121.241 253.8 120.754C253.959 120.267 254.317 119.82 254.873 119.414C259.166 116.572 263.002 114.34 266.381 112.716C269.799 111.092 272.383 110.28 274.132 110.28C276.398 110.28 278.325 110.605 279.915 111.254C281.505 111.904 282.3 112.898 282.3 114.238C286.156 112.33 289.912 110.889 293.569 109.915C296.63 109.103 299.412 108.697 301.916 108.697C303.944 108.697 305.255 109.245 305.852 110.341C306.17 110.909 306.329 111.924 306.329 113.386C306.329 114.238 306.05 115.72 305.494 117.831C305.216 118.886 305.076 119.739 305.076 120.388C305.076 121.403 305.534 122.053 306.448 122.337C306.965 122.499 307.938 122.581 309.369 122.581C311.635 122.581 313.821 122.175 315.928 121.363C317.16 120.876 318.79 120.043 320.817 118.866C321.254 118.582 321.692 118.359 322.129 118.196C322.566 117.993 322.964 117.892 323.321 117.892C323.679 117.892 323.957 118.034 324.156 118.318C324.355 118.562 324.454 118.785 324.454 118.988C324.454 119.313 324.295 119.637 323.977 119.962C323.699 120.246 323.242 120.591 322.606 120.997Z"/>
<path d="M377.626 92.6208C375.639 100.212 374.009 106.464 372.737 111.376C371.346 116.735 370.65 120.429 370.65 122.459C370.65 123.961 370.511 124.996 370.233 125.564C369.995 126.092 369.458 126.356 368.623 126.356C367.987 126.356 367.59 125.97 367.431 125.199C367.272 124.428 367.192 123.798 367.192 123.311C367.192 122.905 367.192 122.54 367.192 122.215C367.192 121.85 367.212 121.525 367.252 121.241C367.252 118.237 368.146 113.852 369.935 108.088C371.167 104.109 372.399 100.131 373.632 96.1526C373.989 94.4476 374.367 92.7426 374.764 91.0375C375.162 89.6573 375.699 88.9672 376.374 88.9672C376.891 88.9672 377.249 89.1498 377.448 89.5152C377.646 89.8806 377.746 90.3677 377.746 90.9767C377.746 91.2608 377.746 91.5247 377.746 91.7683C377.666 92.1742 377.626 92.4584 377.626 92.6208Z"/>
<path d="M432.255 84.1565C432.255 84.5219 430.844 85.1308 428.022 85.9834C425.557 86.7141 423.252 87.323 421.106 87.8102L408.823 90.7331C408.068 92.5599 407.213 95.7264 406.259 100.233C405.345 104.739 404.431 109.306 403.517 113.934C403.238 115.233 403.04 116.897 402.92 118.927C402.841 120.957 402.801 123.25 402.801 125.808C402.801 126.539 402.741 127.005 402.622 127.208C402.304 127.736 401.509 128 400.237 128C399.641 128 399.224 127.736 398.985 127.208C398.747 126.721 398.627 126.051 398.627 125.199C398.627 124.468 398.667 123.839 398.747 123.311C398.826 122.784 398.886 122.398 398.926 122.154C399.442 118.014 399.899 114.664 400.297 112.107C400.973 107.966 401.648 104.394 402.324 101.389C403.04 98.3854 404.013 95.1783 405.246 91.7683C404.411 92.0524 403.338 92.3772 402.026 92.7426C400.714 93.0673 399.581 93.3718 398.627 93.656C394.414 94.7927 390.857 95.6858 387.955 96.3353C384.218 97.1878 381.873 97.6141 380.919 97.6141C380.164 97.6141 379.568 97.5329 379.131 97.3705C378.693 97.1675 378.475 96.8428 378.475 96.3962C378.475 95.6249 378.912 95.0565 379.786 94.6912C383.205 93.8793 387.1 92.905 391.473 91.7683L419.377 84.7046C421.324 84.2174 423.55 83.71 426.054 83.1822C428.598 82.6545 430.188 82.3906 430.824 82.3906C431.42 82.3906 431.798 82.5327 431.957 82.8169C432.156 83.0605 432.255 83.507 432.255 84.1565Z"/>
</mask>
<path d="M260.299 95.4219C259.663 95.6655 259.027 95.4828 258.391 94.8739C257.755 94.2243 257.437 93.6154 257.437 93.047C257.437 92.5193 257.457 92.1742 257.497 92.0118C257.537 91.8089 257.696 91.5856 257.974 91.342C258.292 91.0578 258.65 90.9158 259.047 90.9158C259.524 90.9158 259.941 91.0375 260.299 91.2811C261.015 91.7277 261.372 92.4787 261.372 93.5342C261.372 94.4679 261.015 95.0971 260.299 95.4219ZM257.378 120.815C254.555 122.641 252.131 123.981 250.103 124.834C248.076 125.686 246.387 126.112 245.035 126.112C241.935 126.112 239.808 125.463 238.656 124.164C237.662 123.068 237.165 121.2 237.165 118.562C237.165 117.912 237.245 117.181 237.404 116.369C237.563 115.517 237.722 114.705 237.881 113.934C236.092 115.233 234.681 116.227 233.647 116.917C230.587 119.069 228.301 120.591 226.791 121.484C226.115 121.89 225.479 122.093 224.883 122.093C224.565 122.093 224.346 121.992 224.227 121.789C224.068 121.586 223.988 121.363 223.988 121.119C223.988 120.591 224.326 120.064 225.002 119.536C228.261 117.059 232.673 114.035 238.238 110.463C239.113 109.935 240.544 108.676 242.531 106.687C244.24 105.023 245.512 104.13 246.347 104.008C246.943 103.967 247.321 104.049 247.48 104.252C247.679 104.414 247.778 104.739 247.778 105.226V106.2C245.95 108.473 244.34 110.483 242.949 112.229C241.398 114.218 240.623 116.126 240.623 117.953C240.623 119.779 241.001 121.139 241.756 122.032C242.551 122.885 243.843 123.311 245.632 123.311C246.745 123.311 248.712 122.54 251.534 120.997C252.011 120.713 253.204 120.003 255.112 118.866C256.145 118.176 257.06 117.831 257.855 117.831C258.212 117.831 258.471 117.953 258.63 118.196C258.789 118.399 258.868 118.602 258.868 118.805C258.868 119.13 258.709 119.495 258.391 119.901C258.113 120.267 257.775 120.571 257.378 120.815Z" fill="white"/>
<path d="M322.606 120.997C319.903 122.621 317.915 123.677 316.644 124.164C314.457 124.976 311.834 125.382 308.773 125.382C306.428 125.382 304.6 124.996 303.288 124.225C301.976 123.453 301.32 122.56 301.32 121.545C301.32 120.409 301.559 118.886 302.036 116.978C302.513 115.07 302.751 113.873 302.751 113.386C302.751 112.858 302.612 112.432 302.334 112.107C302.056 111.782 301.618 111.62 301.022 111.62C298.796 111.62 296.431 112.026 293.927 112.838C292.854 113.162 289.356 114.705 283.433 117.465C283.036 117.831 281.883 119.191 279.975 121.545C278.544 123.291 277.451 124.164 276.696 124.164C276.139 124.164 275.622 123.9 275.145 123.372C274.668 122.844 274.43 122.296 274.43 121.728C274.43 121.484 275.086 120.571 276.398 118.988C277.232 117.973 277.809 117.222 278.127 116.735C278.246 115.923 277.928 115.131 277.173 114.36C276.417 113.589 275.463 113.203 274.311 113.203C272.681 113.203 270.236 114.096 266.977 115.882C266.858 115.963 264.99 116.958 261.372 118.866C259.345 119.962 257.835 120.835 256.841 121.484C256.086 121.972 255.39 122.215 254.754 122.215C254.317 122.215 253.999 122.093 253.8 121.85C253.641 121.606 253.641 121.241 253.8 120.754C253.959 120.267 254.317 119.82 254.873 119.414C259.166 116.572 263.002 114.34 266.381 112.716C269.799 111.092 272.383 110.28 274.132 110.28C276.398 110.28 278.325 110.605 279.915 111.254C281.505 111.904 282.3 112.898 282.3 114.238C286.156 112.33 289.912 110.889 293.569 109.915C296.63 109.103 299.412 108.697 301.916 108.697C303.944 108.697 305.255 109.245 305.852 110.341C306.17 110.909 306.329 111.924 306.329 113.386C306.329 114.238 306.05 115.72 305.494 117.831C305.216 118.886 305.076 119.739 305.076 120.388C305.076 121.403 305.534 122.053 306.448 122.337C306.965 122.499 307.938 122.581 309.369 122.581C311.635 122.581 313.821 122.175 315.928 121.363C317.16 120.876 318.79 120.043 320.817 118.866C321.254 118.582 321.692 118.359 322.129 118.196C322.566 117.993 322.964 117.892 323.321 117.892C323.679 117.892 323.957 118.034 324.156 118.318C324.355 118.562 324.454 118.785 324.454 118.988C324.454 119.313 324.295 119.637 323.977 119.962C323.699 120.246 323.242 120.591 322.606 120.997Z" fill="white"/>
<path d="M377.626 92.6208C375.639 100.212 374.009 106.464 372.737 111.376C371.346 116.735 370.65 120.429 370.65 122.459C370.65 123.961 370.511 124.996 370.233 125.564C369.995 126.092 369.458 126.356 368.623 126.356C367.987 126.356 367.59 125.97 367.431 125.199C367.272 124.428 367.192 123.798 367.192 123.311C367.192 122.905 367.192 122.54 367.192 122.215C367.192 121.85 367.212 121.525 367.252 121.241C367.252 118.237 368.146 113.852 369.935 108.088C371.167 104.109 372.399 100.131 373.632 96.1526C373.989 94.4476 374.367 92.7426 374.764 91.0375C375.162 89.6573 375.699 88.9672 376.374 88.9672C376.891 88.9672 377.249 89.1498 377.448 89.5152C377.646 89.8806 377.746 90.3677 377.746 90.9767C377.746 91.2608 377.746 91.5247 377.746 91.7683C377.666 92.1742 377.626 92.4584 377.626 92.6208Z" fill="white"/>
<path d="M432.255 84.1565C432.255 84.5219 430.844 85.1308 428.022 85.9834C425.557 86.7141 423.252 87.323 421.106 87.8102L408.823 90.7331C408.068 92.5599 407.213 95.7264 406.259 100.233C405.345 104.739 404.431 109.306 403.517 113.934C403.238 115.233 403.04 116.897 402.92 118.927C402.841 120.957 402.801 123.25 402.801 125.808C402.801 126.539 402.741 127.005 402.622 127.208C402.304 127.736 401.509 128 400.237 128C399.641 128 399.224 127.736 398.985 127.208C398.747 126.721 398.627 126.051 398.627 125.199C398.627 124.468 398.667 123.839 398.747 123.311C398.826 122.784 398.886 122.398 398.926 122.154C399.442 118.014 399.899 114.664 400.297 112.107C400.973 107.966 401.648 104.394 402.324 101.389C403.04 98.3854 404.013 95.1783 405.246 91.7683C404.411 92.0524 403.338 92.3772 402.026 92.7426C400.714 93.0673 399.581 93.3718 398.627 93.656C394.414 94.7927 390.857 95.6858 387.955 96.3353C384.218 97.1878 381.873 97.6141 380.919 97.6141C380.164 97.6141 379.568 97.5329 379.131 97.3705C378.693 97.1675 378.475 96.8428 378.475 96.3962C378.475 95.6249 378.912 95.0565 379.786 94.6912C383.205 93.8793 387.1 92.905 391.473 91.7683L419.377 84.7046C421.324 84.2174 423.55 83.71 426.054 83.1822C428.598 82.6545 430.188 82.3906 430.824 82.3906C431.42 82.3906 431.798 82.5327 431.957 82.8169C432.156 83.0605 432.255 83.507 432.255 84.1565Z" fill="white"/>
<path d="M260.299 95.4219C259.663 95.6655 259.027 95.4828 258.391 94.8739C257.755 94.2243 257.437 93.6154 257.437 93.047C257.437 92.5193 257.457 92.1742 257.497 92.0118C257.537 91.8089 257.696 91.5856 257.974 91.342C258.292 91.0578 258.65 90.9158 259.047 90.9158C259.524 90.9158 259.941 91.0375 260.299 91.2811C261.015 91.7277 261.372 92.4787 261.372 93.5342C261.372 94.4679 261.015 95.0971 260.299 95.4219ZM257.378 120.815C254.555 122.641 252.131 123.981 250.103 124.834C248.076 125.686 246.387 126.112 245.035 126.112C241.935 126.112 239.808 125.463 238.656 124.164C237.662 123.068 237.165 121.2 237.165 118.562C237.165 117.912 237.245 117.181 237.404 116.369C237.563 115.517 237.722 114.705 237.881 113.934C236.092 115.233 234.681 116.227 233.647 116.917C230.587 119.069 228.301 120.591 226.791 121.484C226.115 121.89 225.479 122.093 224.883 122.093C224.565 122.093 224.346 121.992 224.227 121.789C224.068 121.586 223.988 121.363 223.988 121.119C223.988 120.591 224.326 120.064 225.002 119.536C228.261 117.059 232.673 114.035 238.238 110.463C239.113 109.935 240.544 108.676 242.531 106.687C244.24 105.023 245.512 104.13 246.347 104.008C246.943 103.967 247.321 104.049 247.48 104.252C247.679 104.414 247.778 104.739 247.778 105.226V106.2C245.95 108.473 244.34 110.483 242.949 112.229C241.398 114.218 240.623 116.126 240.623 117.953C240.623 119.779 241.001 121.139 241.756 122.032C242.551 122.885 243.843 123.311 245.632 123.311C246.745 123.311 248.712 122.54 251.534 120.997C252.011 120.713 253.204 120.003 255.112 118.866C256.145 118.176 257.06 117.831 257.855 117.831C258.212 117.831 258.471 117.953 258.63 118.196C258.789 118.399 258.868 118.602 258.868 118.805C258.868 119.13 258.709 119.495 258.391 119.901C258.113 120.267 257.775 120.571 257.378 120.815Z" stroke="white" stroke-width="3.94476" mask="url(#path-2-outside-1_5517_1449)"/>
<path d="M322.606 120.997C319.903 122.621 317.915 123.677 316.644 124.164C314.457 124.976 311.834 125.382 308.773 125.382C306.428 125.382 304.6 124.996 303.288 124.225C301.976 123.453 301.32 122.56 301.32 121.545C301.32 120.409 301.559 118.886 302.036 116.978C302.513 115.07 302.751 113.873 302.751 113.386C302.751 112.858 302.612 112.432 302.334 112.107C302.056 111.782 301.618 111.62 301.022 111.62C298.796 111.62 296.431 112.026 293.927 112.838C292.854 113.162 289.356 114.705 283.433 117.465C283.036 117.831 281.883 119.191 279.975 121.545C278.544 123.291 277.451 124.164 276.696 124.164C276.139 124.164 275.622 123.9 275.145 123.372C274.668 122.844 274.43 122.296 274.43 121.728C274.43 121.484 275.086 120.571 276.398 118.988C277.232 117.973 277.809 117.222 278.127 116.735C278.246 115.923 277.928 115.131 277.173 114.36C276.417 113.589 275.463 113.203 274.311 113.203C272.681 113.203 270.236 114.096 266.977 115.882C266.858 115.963 264.99 116.958 261.372 118.866C259.345 119.962 257.835 120.835 256.841 121.484C256.086 121.972 255.39 122.215 254.754 122.215C254.317 122.215 253.999 122.093 253.8 121.85C253.641 121.606 253.641 121.241 253.8 120.754C253.959 120.267 254.317 119.82 254.873 119.414C259.166 116.572 263.002 114.34 266.381 112.716C269.799 111.092 272.383 110.28 274.132 110.28C276.398 110.28 278.325 110.605 279.915 111.254C281.505 111.904 282.3 112.898 282.3 114.238C286.156 112.33 289.912 110.889 293.569 109.915C296.63 109.103 299.412 108.697 301.916 108.697C303.944 108.697 305.255 109.245 305.852 110.341C306.17 110.909 306.329 111.924 306.329 113.386C306.329 114.238 306.05 115.72 305.494 117.831C305.216 118.886 305.076 119.739 305.076 120.388C305.076 121.403 305.534 122.053 306.448 122.337C306.965 122.499 307.938 122.581 309.369 122.581C311.635 122.581 313.821 122.175 315.928 121.363C317.16 120.876 318.79 120.043 320.817 118.866C321.254 118.582 321.692 118.359 322.129 118.196C322.566 117.993 322.964 117.892 323.321 117.892C323.679 117.892 323.957 118.034 324.156 118.318C324.355 118.562 324.454 118.785 324.454 118.988C324.454 119.313 324.295 119.637 323.977 119.962C323.699 120.246 323.242 120.591 322.606 120.997Z" stroke="white" stroke-width="3.94476" mask="url(#path-2-outside-1_5517_1449)"/>
<path d="M377.626 92.6208C375.639 100.212 374.009 106.464 372.737 111.376C371.346 116.735 370.65 120.429 370.65 122.459C370.65 123.961 370.511 124.996 370.233 125.564C369.995 126.092 369.458 126.356 368.623 126.356C367.987 126.356 367.59 125.97 367.431 125.199C367.272 124.428 367.192 123.798 367.192 123.311C367.192 122.905 367.192 122.54 367.192 122.215C367.192 121.85 367.212 121.525 367.252 121.241C367.252 118.237 368.146 113.852 369.935 108.088C371.167 104.109 372.399 100.131 373.632 96.1526C373.989 94.4476 374.367 92.7426 374.764 91.0375C375.162 89.6573 375.699 88.9672 376.374 88.9672C376.891 88.9672 377.249 89.1498 377.448 89.5152C377.646 89.8806 377.746 90.3677 377.746 90.9767C377.746 91.2608 377.746 91.5247 377.746 91.7683C377.666 92.1742 377.626 92.4584 377.626 92.6208Z" stroke="white" stroke-width="3.94476" mask="url(#path-2-outside-1_5517_1449)"/>
<path d="M432.255 84.1565C432.255 84.5219 430.844 85.1308 428.022 85.9834C425.557 86.7141 423.252 87.323 421.106 87.8102L408.823 90.7331C408.068 92.5599 407.213 95.7264 406.259 100.233C405.345 104.739 404.431 109.306 403.517 113.934C403.238 115.233 403.04 116.897 402.92 118.927C402.841 120.957 402.801 123.25 402.801 125.808C402.801 126.539 402.741 127.005 402.622 127.208C402.304 127.736 401.509 128 400.237 128C399.641 128 399.224 127.736 398.985 127.208C398.747 126.721 398.627 126.051 398.627 125.199C398.627 124.468 398.667 123.839 398.747 123.311C398.826 122.784 398.886 122.398 398.926 122.154C399.442 118.014 399.899 114.664 400.297 112.107C400.973 107.966 401.648 104.394 402.324 101.389C403.04 98.3854 404.013 95.1783 405.246 91.7683C404.411 92.0524 403.338 92.3772 402.026 92.7426C400.714 93.0673 399.581 93.3718 398.627 93.656C394.414 94.7927 390.857 95.6858 387.955 96.3353C384.218 97.1878 381.873 97.6141 380.919 97.6141C380.164 97.6141 379.568 97.5329 379.131 97.3705C378.693 97.1675 378.475 96.8428 378.475 96.3962C378.475 95.6249 378.912 95.0565 379.786 94.6912C383.205 93.8793 387.1 92.905 391.473 91.7683L419.377 84.7046C421.324 84.2174 423.55 83.71 426.054 83.1822C428.598 82.6545 430.188 82.3906 430.824 82.3906C431.42 82.3906 431.798 82.5327 431.957 82.8169C432.156 83.0605 432.255 83.507 432.255 84.1565Z" stroke="white" stroke-width="3.94476" mask="url(#path-2-outside-1_5517_1449)"/>
</svg>
