<svg width="14" height="24" viewBox="0 0 14 24" fill="none" xmlns="http://www.w3.org/2000/svg">
<circle cx="7" cy="17" r="4" fill="white"/>
<circle cx="7" cy="17" r="6.5" stroke="white"/>
<path d="M2.9835 6.65H6.914V7H2.336V6.671L4.548 5.222C5.00067 4.92567 5.35183 4.67367 5.6015 4.466C5.8535 4.25833 6.03667 4.06117 6.151 3.8745C6.26767 3.6855 6.326 3.48367 6.326 3.269C6.326 3.017 6.256 2.7965 6.116 2.6075C5.976 2.4185 5.77883 2.27267 5.5245 2.17C5.27017 2.06733 4.97733 2.016 4.646 2.016C4.25867 2.016 3.92617 2.07783 3.6485 2.2015C3.37317 2.32517 3.15967 2.49667 3.008 2.716C2.85633 2.933 2.76767 3.185 2.742 3.472H2.35C2.378 3.11733 2.49233 2.8035 2.693 2.5305C2.89367 2.2575 3.162 2.04517 3.498 1.8935C3.83633 1.74183 4.219 1.666 4.646 1.666C5.05433 1.666 5.416 1.73367 5.731 1.869C6.04833 2.002 6.2945 2.18983 6.4695 2.4325C6.6445 2.67517 6.732 2.954 6.732 3.269C6.732 3.521 6.67367 3.75317 6.557 3.9655C6.44033 4.17783 6.24783 4.39833 5.9795 4.627C5.7135 4.85567 5.339 5.12633 4.856 5.439L2.9835 6.65ZM11.0479 5.411H12.1329V5.761H11.0479V7H10.6559V5.761H7.24694V5.46L10.5509 1.75H11.0479V5.411ZM10.6559 2.1665L7.76844 5.411H10.6559V2.1665Z" fill="#C7C9C9"/>
</svg>
